<svg width="149" height="56" viewBox="0 0 149 56" fill="none" xmlns="http://www.w3.org/2000/svg">
<path d="M4.78952 1.77399C6.13437 1.99648 8.69791 2.92082 11.2882 6.58072C12.3119 8.02496 12.9954 9.57547 13.5238 11.1007C14.2883 11.7307 15.0269 12.1971 15.7639 12.5136C15.1324 10.3385 14.2852 7.84988 12.6873 5.59445C8.36762 -0.497489 3.8109 -0.0066471 3.62052 0.0193476C3.50357 0.033752 3.39085 0.0721842 3.28946 0.132231C3.18806 0.192277 3.10018 0.272641 3.03132 0.368274C2.96247 0.463908 2.91414 0.572746 2.88935 0.687952C2.86457 0.803158 2.86388 0.922243 2.88732 1.03773L3.29559 3.04162H5.04488L4.78952 1.77399Z" fill="white"/>
<path d="M27.4324 15.113C25.4331 14.2605 23.4308 15.5793 21.6631 16.7422C20.6363 17.4181 19.5751 18.1184 18.8114 18.1949C17.6271 18.243 17.1057 17.165 16.3327 14.5074C15.6341 14.3316 14.9609 14.0669 14.3296 13.7199C14.3693 13.8629 14.4098 14.0059 14.4488 14.1473C15.2983 17.1849 16.098 20.0734 18.9436 19.8983C20.1669 19.776 21.352 18.9953 22.6074 18.1689C24.0829 17.1987 25.609 16.1956 26.7581 16.6856C28.1725 17.2881 28.6251 18.4563 28.1442 20.2561C27.9187 21.0971 22.3145 44.8746 21.277 49.2754H14.4825L6.0663 8.03398L4.00201 6.50488L12.9427 50.2991C12.9816 50.4934 13.0867 50.6682 13.24 50.7937C13.3934 50.9191 13.5855 50.9875 13.7837 50.9872H21.956C22.149 50.9877 22.3365 50.9228 22.4879 50.8031C22.6394 50.6835 22.7459 50.5161 22.7901 50.3282C25.1319 40.389 29.6114 21.406 29.8003 20.7003C30.5082 18.0488 29.6672 16.0664 27.4324 15.113Z" fill="white"/>
<path d="M24.7894 17.3913L17.832 48.4772H19.5904L26.5983 17.1543C26.057 16.9792 25.44 17.1084 24.7894 17.3913Z" fill="white"/>
<path d="M27.6549 9.72858C27.4998 9.63649 27.3197 9.59557 27.1401 9.61162C26.9604 9.62768 26.7904 9.6999 26.6541 9.81804C23.1173 12.8831 20.3083 14.2295 17.8228 14.0529C15.682 13.9 13.6759 12.6216 11.318 9.90367C8.23074 6.34545 5.90956 4.22611 4.94852 4.08926C4.90854 4.08313 4.86816 4.08007 4.82772 4.08008H0.858938C0.731474 4.07969 0.605531 4.10776 0.490297 4.16224C0.375064 4.21672 0.273446 4.29624 0.192858 4.39499C0.112271 4.49375 0.0547478 4.60925 0.0244848 4.73307C-0.00577814 4.85689 -0.00801693 4.9859 0.0179317 5.1107C3.69771 22.586 9.16808 49.1611 9.17343 50.7582C9.13902 52.415 7.89892 53.6903 7.88898 53.701C7.76898 53.8204 7.68722 53.9728 7.65411 54.1389C7.621 54.3049 7.63803 54.477 7.70303 54.6333C7.76804 54.7897 7.87808 54.9231 8.01916 55.0167C8.16024 55.1103 8.32597 55.1598 8.49527 55.159H17.4076C17.6022 55.1592 17.7911 55.0931 17.9431 54.9717C18.0952 54.8502 18.2013 54.6806 18.2441 54.4907L18.8503 51.7812H17.0919L16.7188 53.4502H10.1436C10.5213 52.7514 10.8608 51.8377 10.8822 50.7934C10.9235 48.8269 3.51575 13.429 1.91172 5.78962H4.66411C4.98369 5.95553 6.39964 6.84929 10.0198 11.0222C12.6957 14.1102 15.0658 15.5713 17.6989 15.7571C20.1661 15.9375 22.7908 14.9451 25.8422 12.6706L25.2198 15.4528C25.7965 15.3191 26.3972 15.3291 26.9691 15.4818L28.0502 10.6491C28.0898 10.4736 28.0729 10.2901 28.0019 10.1247C27.9309 9.9594 27.8094 9.82075 27.6549 9.72858Z" fill="white"/>
<path d="M48.7313 16.8471C48.7313 19.8793 46.4797 22.2073 43.5239 22.2073H39.2394V11.4868H43.5209C46.4797 11.4868 48.7313 13.8149 48.7313 16.8471ZM46.3726 16.8471C46.3726 15.0122 45.209 13.8455 43.5239 13.8455H41.6859V19.8487H43.5209C45.209 19.8487 46.3726 18.6851 46.3726 16.8471Z" fill="white"/>
<path d="M56.8478 19.8487V22.2073H50.1098V11.4868H56.7713V13.8455H52.5594V15.6223H56.3883V17.9496H52.5594V19.8487H56.8478Z" fill="white"/>
<path d="M66.6485 11.4868V22.2073H64.8136L60.6789 16.3876V22.2073H58.2323V11.4868H60.0673L64.2027 17.3066V11.4868H66.6485Z" fill="white"/>
<path d="M79.2063 22.2073H76.7597V15.974L73.9875 20.5223H73.7122L70.94 15.974V22.2073H68.4865V11.4868H70.9369L73.8468 16.25L76.7567 11.4868H79.2032L79.2063 22.2073Z" fill="white"/>
<path d="M87.3235 20.5224H83.3417L82.8065 22.2044H80.1306L83.7752 11.4839H86.8992L90.5407 22.2075H87.8648L87.3235 20.5224ZM86.588 18.2288L85.3326 14.2928L84.0764 18.2288H86.588Z" fill="white"/>
<path d="M95.0722 18.6851H93.9086V22.2074H91.462V11.4868H95.7504C96.2333 11.4861 96.7116 11.5807 97.1578 11.7652C97.6041 11.9497 98.0095 12.2205 98.351 12.562C98.6924 12.9035 98.9631 13.309 99.1475 13.7553C99.3319 14.2016 99.4264 14.6799 99.4256 15.1628C99.4256 16.4793 98.6289 17.6743 97.45 18.2714L99.7314 22.2074H97.0975L95.0722 18.6851ZM93.9086 16.5405H95.7435C96.4171 16.5405 96.9668 15.9434 96.9668 15.1643C96.9668 14.3852 96.4155 13.7881 95.7435 13.7881H93.9086V16.5405Z" fill="white"/>
<path d="M106.758 22.2073L103.327 17.2454V22.2073H100.881V11.4868H103.327V16.1429L106.604 11.4868H109.392L105.778 16.7095L109.544 22.2073H106.758Z" fill="white"/>
<path d="M47.0462 33.5402C47.0462 35.577 45.4078 37.2154 43.2946 37.2154H41.6859V40.584H39.2394V29.8643H43.2915C45.4078 29.8643 47.0462 31.5035 47.0462 33.5402ZM44.5958 33.5402C44.5958 32.7588 44.0446 32.164 43.2961 32.164H41.6859V34.9202H43.2915C44.0446 34.9179 44.5958 34.3208 44.5958 33.5402Z" fill="white"/>
<path d="M56.5412 29.8643V40.584H54.0946V36.327H50.7222V40.584H48.2718V29.8643H50.7222V33.9684H54.0908V29.8643H56.5412Z" fill="white"/>
<path d="M60.8296 29.8643V40.584H58.383V29.8643H60.8296Z" fill="white"/>
<path d="M68.946 38.2277V40.5856H62.6675V29.8643H65.1141V38.2277H68.946Z" fill="white"/>
<path d="M78.288 29.8643V40.584H75.8415V36.327H72.4721V40.584H70.0255V29.8643H72.4721V33.9684H75.8415V29.8643H78.288Z" fill="white"/>
<path d="M86.4045 38.9001H82.4227L81.8875 40.5821H79.207L82.8524 29.8623H85.9763L89.6232 40.5844H86.9473L86.4045 38.9001ZM85.669 36.6064L84.4136 32.6705L83.1574 36.6064H85.669Z" fill="white"/>
<path d="M94.1532 37.0617H92.9873V40.584H90.5407V29.8643H94.8291C95.312 29.8636 95.7903 29.9582 96.2365 30.1427C96.6828 30.3272 97.0883 30.5979 97.4297 30.9394C97.7711 31.2809 98.0418 31.6864 98.2262 32.1327C98.4106 32.579 98.5051 33.0573 98.5043 33.5402C98.5043 34.8568 97.7076 36.0518 96.5287 36.6489L98.8101 40.584H96.1762L94.1532 37.0617ZM92.9896 34.921H94.8245C95.4981 34.921 96.0478 34.3239 96.0478 33.5448C96.0478 32.7657 95.4965 32.1686 94.8245 32.1686H92.9896V34.921Z" fill="white"/>
<path d="M110.677 40.584H108.227V34.3514L105.456 38.8997H105.18L102.408 34.3514V40.584H99.9615V29.8643H102.408L105.313 34.6274L108.223 29.8643H110.674L110.677 40.584Z" fill="white"/>
<path d="M112.056 35.2247C112.056 32.0702 114.552 29.6504 117.63 29.6504C120.708 29.6504 123.205 32.0702 123.205 35.2247C123.205 38.3793 120.708 40.7991 117.63 40.7991C114.552 40.7991 112.056 38.3808 112.056 35.2247ZM120.754 35.2247C120.754 33.3134 119.378 32.0396 117.63 32.0396C115.883 32.0396 114.506 33.3103 114.506 35.2247C114.506 37.1392 115.883 38.4098 117.63 38.4098C119.378 38.4098 120.754 37.1392 120.754 35.2247Z" fill="white"/>
<path d="M133.006 29.8643V40.584H131.171L127.037 34.765V40.584H124.59V29.8643H126.425L130.56 35.684V29.8643H133.006Z" fill="white"/>
<path d="M137.294 29.8643V40.584H134.847V29.8643H137.294Z" fill="white"/>
<path d="M138.672 35.2247C138.672 32.0702 141.016 29.6504 144.247 29.6504C146.192 29.6504 147.907 30.6153 148.841 32.1314L146.728 33.3546C146.253 32.5274 145.334 32.0381 144.247 32.0381C142.348 32.0381 141.123 33.3088 141.123 35.2232C141.123 37.1376 142.346 38.4083 144.247 38.4083C145.334 38.4083 146.268 37.9182 146.728 37.0918L148.841 38.315C147.923 39.8312 146.207 40.796 144.247 40.796C141.016 40.7991 138.672 38.3808 138.672 35.2247Z" fill="white"/>
</svg>
