<svg width="30" height="43" viewBox="0 0 30 43" fill="none" xmlns="http://www.w3.org/2000/svg">
<g clip-path="url(#clip0)">
<path d="M15 40.6965C14.6665 40.2983 14.2696 39.817 13.8247 39.2644C12.4374 37.541 10.59 35.1312 8.74567 32.3819C6.89842 29.6282 5.07254 26.5612 3.71305 23.5214C2.3444 20.4611 1.5 17.5408 1.5 15.05C1.5 7.48872 7.47599 1.5 15 1.5C22.524 1.5 28.5 7.48872 28.5 15.05C28.5 17.5408 27.6556 20.4611 26.287 23.5214C24.9275 26.5612 23.1016 29.6282 21.2543 32.3819C19.41 35.1312 17.5626 37.541 16.1753 39.2644C15.7304 39.817 15.3335 40.2983 15 40.6965ZM8.14286 15.05C8.14286 18.8837 11.1669 21.925 15 21.925C18.8331 21.925 21.8571 18.8837 21.8571 15.05C21.8571 11.2163 18.8331 8.175 15 8.175C11.1669 8.175 8.14286 11.2163 8.14286 15.05Z" stroke="white" stroke-width="3"/>
<path d="M6 42H24" stroke="white" stroke-width="3"/>
</g>
<defs>
<clipPath id="clip0">
<rect width="30" height="43" fill="white"/>
</clipPath>
</defs>
</svg>
