<svg width="41" height="39" viewBox="0 0 41 39" fill="none" xmlns="http://www.w3.org/2000/svg">
<path d="M22.1773 25.545L17.5182 20.67C20.6864 16.965 23.1091 12.48 24.4136 7.995H29.8182V3.9H16.7727V0H13.0455V3.9H0V7.8H20.8727C19.5682 11.505 17.5182 15.21 14.9091 18.33C13.2318 16.185 11.7409 14.04 10.6227 11.7H6.89545C8.2 14.82 10.0636 17.94 12.4864 20.67L2.98182 30.42L5.59091 33.15L14.9091 23.4L20.6864 29.445L22.1773 25.545ZM32.6136 15.6H28.8864L20.5 39H24.2273L26.2773 33.15H35.0364L37.0864 39H40.8136L32.6136 15.6ZM27.7682 29.25L30.75 20.865L33.7318 29.25H27.7682Z" fill="white"/>
</svg>
