<svg width="38" height="26" viewBox="0 0 38 26" fill="none" xmlns="http://www.w3.org/2000/svg">
<g clip-path="url(#clip0)">
<path d="M35.1739 6.41273L35.5769 6.33307L35.5769 5.92222L35.5769 4.33334C35.5769 3.7846 35.3895 3.28928 35.0265 2.93049C34.664 2.57221 34.1657 2.38889 33.6154 2.38889L4.38462 2.38889C3.83429 2.38889 3.33605 2.57221 2.97354 2.93048C2.6105 3.28927 2.42308 3.78459 2.42308 4.33333L2.42308 5.92222L2.42308 6.33902L2.83306 6.41405C6.50596 7.08626 8.94852 10.7179 8.13526 14.3348L8.13515 14.3347L8.13301 14.3453C7.58901 17.0335 5.55404 19.0481 2.82612 19.5873L2.42308 19.6669L2.42308 20.0778L2.42308 21.6667C2.42308 22.2154 2.6105 22.7107 2.97353 23.0695C3.33604 23.4278 3.83429 23.6111 4.38462 23.6111L33.6154 23.6111C34.1657 23.6111 34.664 23.4278 35.0265 23.0695C35.3895 22.7107 35.5769 22.2154 35.5769 21.6667L35.5769 20.0778L35.5769 19.661L35.1669 19.5859C31.494 18.9137 29.0515 15.2821 29.8647 11.6652L29.8649 11.6653L29.867 11.6547C30.411 8.96651 32.446 6.95194 35.1739 6.41273ZM4.38462 0.499999L33.6154 0.500002C35.8294 0.500002 37.5 2.15945 37.5 4.33334L37.5 7.22222C37.5 7.54015 37.3951 7.76705 37.2466 7.91382C37.0976 8.0611 36.8651 8.16667 36.5385 8.16667C33.7833 8.16667 31.6538 10.2628 31.6538 13C31.6538 15.7372 33.7833 17.8333 36.5385 17.8333C36.8651 17.8333 37.0976 17.9389 37.2466 18.0862C37.3951 18.2329 37.5 18.4598 37.5 18.7778L37.5 21.6667C37.5 23.8406 35.8294 25.5 33.6154 25.5L4.38462 25.5C2.17058 25.5 0.5 23.8405 0.5 21.6667L0.500001 18.7778C0.500001 18.4598 0.60489 18.2329 0.753392 18.0862C0.902421 17.9389 1.13495 17.8333 1.46154 17.8333C4.21674 17.8333 6.34615 15.7372 6.34615 13C6.34615 10.2628 4.21674 8.16666 1.46154 8.16666C1.13495 8.16666 0.902422 8.0611 0.753393 7.91382C0.604891 7.76705 0.500002 7.54015 0.500002 7.22222L0.500002 4.33333C0.500002 2.15945 2.17058 0.499999 4.38462 0.499999Z" fill="white" stroke="white"/>
<path d="M23.3846 22.1667C23.7112 22.1667 23.9437 22.2722 24.0928 22.4195C24.2413 22.5663 24.3462 22.7932 24.3462 23.1111L24.3462 24.5556C24.3462 24.8735 24.2413 25.1004 24.0928 25.2472C23.9437 25.3944 23.7112 25.5 23.3846 25.5C23.058 25.5 22.8255 25.3944 22.6765 25.2472C22.528 25.1004 22.4231 24.8735 22.4231 24.5556L22.4231 23.1111C22.4231 22.7932 22.528 22.5663 22.6765 22.4195C22.8255 22.2722 23.058 22.1667 23.3846 22.1667Z" fill="white" stroke="white"/>
<path d="M23.3846 0.499979C23.7112 0.499979 23.9437 0.605544 24.0928 0.752828C24.2413 0.899594 24.3462 1.12649 24.3462 1.44442L24.3462 2.88887C24.3462 3.2068 24.2413 3.4337 24.0928 3.58046C23.9437 3.72775 23.7112 3.83331 23.3846 3.83331C23.058 3.83331 22.8255 3.72775 22.6765 3.58046C22.528 3.4337 22.4231 3.2068 22.4231 2.88887L22.4231 1.44442C22.4231 1.12649 22.528 0.899594 22.6765 0.752828C22.8255 0.605544 23.058 0.499979 23.3846 0.499979Z" fill="white" stroke="white"/>
<path d="M23.3846 16.3889C23.9588 16.3889 24.3462 16.8599 24.3462 17.3333C24.3462 17.5297 24.2416 17.7695 24.038 17.9708C23.8347 18.1717 23.5895 18.2778 23.3846 18.2778C23.1798 18.2778 22.9346 18.1717 22.7313 17.9708C22.5276 17.7695 22.4231 17.5297 22.4231 17.3333C22.4231 17.1758 22.449 17.0669 22.4887 16.9787C22.5294 16.8881 22.5965 16.793 22.713 16.6778C22.8294 16.5628 22.9262 16.4959 23.0194 16.455C23.1105 16.4149 23.223 16.3889 23.3846 16.3889Z" fill="white" stroke="white"/>
<path d="M22.811 12.2496C22.8345 12.2278 22.8531 12.2118 22.868 12.2L23.0054 12.2L23.1304 12.0765C23.1396 12.0737 23.1537 12.0702 23.1736 12.067C23.2375 12.0564 23.3087 12.0556 23.3846 12.0556C23.9588 12.0556 24.3462 12.5266 24.3462 13C24.3462 13.5533 23.878 13.9445 23.3846 13.9445C23.1798 13.9445 22.9346 13.8383 22.7313 13.6374C22.5276 13.4362 22.4231 13.1964 22.4231 13C22.4231 12.8425 22.449 12.7336 22.4887 12.6454C22.5294 12.5548 22.5965 12.4597 22.713 12.3445C22.7506 12.3073 22.7814 12.277 22.811 12.2496Z" fill="white" stroke="white"/>
<path d="M23.3846 7.72219C23.9588 7.72219 24.3462 8.19321 24.3462 8.66664C24.3462 8.86304 24.2416 9.1028 24.038 9.30407C23.8347 9.50497 23.5895 9.61108 23.3846 9.61108C22.8104 9.61108 22.4231 9.14006 22.4231 8.66664C22.4231 8.50908 22.449 8.40021 22.4887 8.31199C22.5294 8.22142 22.5965 8.12634 22.713 8.01115C22.8294 7.89613 22.9262 7.82925 23.0194 7.78831C23.1105 7.74826 23.223 7.72219 23.3846 7.72219Z" fill="white" stroke="white"/>
</g>
<defs>
<clipPath id="clip0">
<rect width="38" height="26" fill="white" transform="translate(38 26) rotate(-180)"/>
</clipPath>
</defs>
</svg>
