<svg width="10" height="20" viewBox="0 0 10 20" fill="none" xmlns="http://www.w3.org/2000/svg">
<path d="M1.99697 9.83612V19.2686C1.99697 19.3961 2.10319 19.5235 2.2519 19.5235H5.75721C5.88468 19.5235 6.01214 19.4173 6.01214 19.2686V9.66617H8.54022C8.66768 9.66617 8.7739 9.55994 8.79515 9.43248L9.00759 6.5645C9.02884 6.41578 8.90137 6.28832 8.75266 6.28832H5.9909V4.24886C5.9909 3.76024 6.3733 3.37785 6.86192 3.37785H8.81639C8.94386 3.37785 9.07133 3.27163 9.07133 3.12292V0.254932C9.07133 0.127466 8.9651 0 8.81639 0H5.50228C3.56905 0 1.99697 1.57208 1.99697 3.50531V6.28832H0.254932C0.127466 6.28832 0 6.39454 0 6.54325V9.43248C0 9.55994 0.106222 9.68741 0.254932 9.68741H1.99697V9.83612Z" fill="white"/>
</svg>
