<svg width="21" height="21" viewBox="0 0 21 21" fill="none" xmlns="http://www.w3.org/2000/svg">
<path d="M15.5084 3.739C14.8498 3.739 14.3187 4.27011 14.3187 4.92868C14.3187 5.58726 14.8498 6.11836 15.5084 6.11836C16.1669 6.11836 16.698 5.58726 16.698 4.92868C16.698 4.27011 16.1669 3.739 15.5084 3.739ZM10.1973 5.26859C7.43551 5.26859 5.18361 7.52049 5.18361 10.2823C5.18361 13.044 7.43551 15.2959 10.1973 15.2959C12.959 15.2959 15.2109 13.044 15.2109 10.2823C15.2109 7.52049 12.959 5.26859 10.1973 5.26859ZM10.1973 13.5114C8.41275 13.5114 6.98938 12.0668 6.98938 10.3035C6.98938 8.51897 8.434 7.0956 10.1973 7.0956C11.9818 7.0956 13.4052 8.54022 13.4052 10.3035C13.4052 12.0668 11.9606 13.5114 10.1973 13.5114ZM20.3308 6.11836C20.3308 2.74052 17.5903 0 14.2125 0H6.11836C2.74052 0 0 2.74052 0 6.11836V14.2125C0 17.5903 2.74052 20.3308 6.11836 20.3308H14.1912C17.5691 20.3308 20.3096 17.5903 20.3096 14.2125L20.3308 6.11836ZM18.3976 14.1912C18.3976 16.5068 16.5068 18.3976 14.1912 18.3976H6.11836C3.80273 18.3976 1.91199 16.5068 1.91199 14.1912V6.11836C1.91199 3.78149 3.78149 1.91199 6.11836 1.91199H14.1912C16.5068 1.91199 18.3976 3.80273 18.3976 6.11836V14.1912Z" fill="white"/>
</svg>
