<svg width="24" height="44" viewBox="0 0 24 44" fill="none" xmlns="http://www.w3.org/2000/svg">
<path d="M4.30844 2.07878C5.35772 2.252 7.35493 2.98069 9.37896 5.84468C10.1778 6.97653 10.7114 8.18903 11.1228 9.3836C11.719 9.87636 12.2943 10.2437 12.8696 10.4916C12.3778 8.7893 11.716 6.83617 10.47 5.07119C7.10155 0.301857 3.5483 0.68412 3.39926 0.705025C3.21444 0.728917 3.04751 0.827469 2.9402 0.979777C2.83289 1.13209 2.79115 1.32023 2.82692 1.5024L3.14588 3.07327H4.50816L4.30844 2.07878Z" fill="white"/>
<path d="M21.9644 12.5283C20.4054 11.8593 18.8434 12.8927 17.4662 13.8035C16.6644 14.3321 15.8386 14.8816 15.2425 14.9413C14.3184 14.9802 13.913 14.135 13.3108 12.0535C12.7832 11.9221 12.2645 11.719 11.7488 11.4353C11.7816 11.5488 11.8114 11.6593 11.8412 11.7698C12.503 14.1499 13.126 16.4107 15.3438 16.2733C16.2977 16.1777 17.2218 15.5655 18.1995 14.9175C19.3502 14.1559 20.5395 13.3705 21.4368 13.7557C22.5397 14.2276 22.8915 15.1444 22.5159 16.554C22.34 17.214 17.97 35.8374 17.1622 39.2838H11.8681L5.30709 6.9825L3.70038 5.78494L10.6668 40.0901C10.7294 40.4007 11.0036 40.6247 11.3226 40.6247H17.6957C18.0058 40.6247 18.274 40.4096 18.3456 40.108C20.1699 32.3224 23.6635 17.4529 23.8096 16.9004C24.3611 14.8279 23.7053 13.2749 21.9644 12.5283Z" fill="white"/>
<path d="M19.9016 14.3142L14.4794 38.6656H15.8476L21.3116 14.1291C20.8913 13.9917 20.4084 14.0902 19.9016 14.3142Z" fill="white"/>
<path d="M22.1373 8.31149C21.8899 8.16217 21.5739 8.19203 21.3563 8.38018C18.5989 10.7813 16.411 11.8355 14.4704 11.6981C12.8011 11.5786 11.2361 10.5782 9.39986 8.44886C6.99426 5.66252 5.18187 4.00206 4.43366 3.89455C4.40087 3.88858 4.37106 3.88858 4.33827 3.88858H1.24707C1.04437 3.88858 0.856571 3.97817 0.728392 4.13645C0.600213 4.29175 0.552518 4.49781 0.594251 4.69492C3.4589 18.3847 7.72459 39.2031 7.72757 40.4515C7.70074 41.7506 6.73492 42.748 6.72598 42.757C6.5352 42.9481 6.47857 43.2348 6.57992 43.4857C6.68425 43.7366 6.9257 43.8978 7.19697 43.8978H14.1455C14.4585 43.8978 14.7297 43.6798 14.7983 43.3752L15.2722 41.2518H13.904L13.6119 42.5599H8.4877C8.78281 42.0134 9.04513 41.2966 9.06301 40.4784C9.0958 38.9374 3.32178 11.2083 2.0698 5.22352H4.21307C4.46347 5.35492 5.56641 6.05374 8.38933 9.3209C10.4789 11.7399 12.3241 12.8837 14.375 13.0301C16.2977 13.1704 18.3456 12.3939 20.7243 10.611L20.2384 12.7911C20.6886 12.6926 21.1446 12.6866 21.6037 12.815L22.4473 9.02823C22.5099 8.75049 22.3847 8.45782 22.1373 8.31149Z" fill="white"/>
</svg>
