<svg width="19" height="16" viewBox="0 0 19 16" fill="none" xmlns="http://www.w3.org/2000/svg">
<path d="M18.8826 1.89998C18.2877 2.17615 17.6079 2.34611 16.9706 2.45233C17.2892 2.40984 17.7354 1.83624 17.9266 1.6238C18.2027 1.28389 18.4364 0.88025 18.5639 0.455363C18.5851 0.412875 18.5851 0.370386 18.5639 0.349142C18.5214 0.327897 18.5002 0.349142 18.4577 0.349142C17.7354 0.731539 16.9918 1.02896 16.1845 1.22016C16.1208 1.2414 16.0783 1.22016 16.0358 1.17767C15.9721 1.09269 15.9084 1.02896 15.8446 0.965227C15.5047 0.689051 15.1436 0.455363 14.7399 0.285409C14.2088 0.0729655 13.614 -0.0332561 13.0404 0.00923254C12.488 0.0517212 11.9357 0.200431 11.447 0.455363C10.9584 0.710295 10.5123 1.07145 10.1511 1.51758C9.78999 1.96371 9.51381 2.49482 9.38635 3.06841C9.25888 3.62077 9.25888 4.15188 9.34386 4.70423C9.3651 4.78921 9.34386 4.81045 9.25888 4.78921C6.11472 4.34307 3.52291 3.23837 1.41972 0.837761C1.33475 0.731539 1.27101 0.731539 1.20728 0.837761C0.293776 2.21864 0.739906 4.42805 1.8871 5.53276C2.03581 5.68147 2.20576 5.83018 2.37572 5.95764C2.31199 5.97889 1.54719 5.89391 0.867372 5.53276C0.782395 5.46902 0.739906 5.51151 0.718662 5.61773C0.718662 5.76644 0.718662 5.89391 0.739906 6.06386C0.909861 7.46599 1.8871 8.76189 3.20425 9.25051C3.35296 9.31425 3.54416 9.37798 3.71411 9.39922C3.41669 9.46296 3.09803 9.50544 2.22701 9.44171C2.12079 9.42047 2.0783 9.4842 2.12079 9.56918C2.75812 11.3537 4.16024 11.8848 5.22246 12.1822C5.37117 12.2035 5.49863 12.2035 5.64735 12.246C5.64735 12.2672 5.6261 12.2672 5.6261 12.2672C5.28619 12.7983 4.07527 13.202 3.50167 13.3932C2.48194 13.7543 1.35599 13.903 0.272531 13.7968C0.102577 13.7756 0.060088 13.7756 0.0175994 13.7968C-0.0248893 13.818 0.0175994 13.8605 0.060088 13.903C0.272531 14.0517 0.506219 14.1792 0.739906 14.3067C1.41972 14.6678 2.14203 14.9652 2.88558 15.1777C6.75205 16.2399 11.1284 15.4539 14.0389 12.5646C16.312 10.3127 17.1193 7.18981 17.1193 4.04565C17.1193 3.91819 17.268 3.85445 17.353 3.79072C17.9478 3.34459 18.4152 2.81348 18.8613 2.21864C18.9675 2.09118 18.9463 1.96371 18.9463 1.92122V1.89998C18.9463 1.85749 18.9675 1.85749 18.8826 1.89998Z" fill="white"/>
<path d="M6.26343 15.6029C6.26343 15.5604 6.60334 15.6029 6.26343 15.6029C6.26343 15.5816 6.30592 15.6029 6.26343 15.6029Z" fill="white"/>
<path d="M12.9766 0.0517578C12.9554 0.0730021 12.9342 0.0730021 12.8917 0.0517578C12.9129 0.0517578 12.9554 0.0517578 12.9766 0.0517578Z" fill="white"/>
</svg>
